<?xml version="1.0" standalone="no"?>
<!DOCTYPE svg PUBLIC "-//W3C//DTD SVG 20010904//EN"
 "http://www.w3.org/TR/2001/REC-SVG-20010904/DTD/svg10.dtd">
<svg version="1.0" xmlns="http://www.w3.org/2000/svg"
 width="1588.000000pt" height="1310.000000pt" viewBox="0 0 1588.000000 1310.000000"
 preserveAspectRatio="xMidYMid meet">

<g transform="translate(0.000000,1310.000000) scale(0.100000,-0.100000)"
fill="#000000" stroke="none">
<path d="M7739 12107 c-71 -27 -172 -95 -302 -205 l-88 -74 -39 36 c-61 55
-95 69 -158 64 -47 -4 -60 -10 -86 -39 -17 -19 -37 -54 -45 -79 -61 -207 -134
-277 -341 -331 -73 -19 -113 -23 -285 -23 -176 -1 -203 -3 -227 -19 -49 -33
-71 -111 -48 -171 9 -24 7 -25 -38 -31 -153 -20 -224 -47 -271 -101 -41 -47
-50 -98 -27 -155 6 -13 -6 -20 -61 -34 -78 -21 -150 -55 -175 -81 -48 -54 -46
-142 3 -199 l30 -33 -141 -151 c-129 -138 -146 -152 -196 -168 -47 -14 -65
-15 -122 -6 -67 12 -68 12 -145 95 -43 46 -140 153 -217 238 -154 171 -206
219 -324 298 -152 102 -280 153 -478 192 -141 28 -231 57 -361 119 -214 101
-220 102 -502 111 l-250 8 -172 56 c-262 85 -331 97 -533 97 -374 -2 -685
-123 -839 -329 -78 -104 -171 -334 -202 -502 -20 -110 -15 -319 11 -435 29
-133 142 -408 277 -680 l110 -220 7 -107 c8 -122 29 -197 89 -313 76 -147 231
-314 388 -418 l85 -57 23 -79 c13 -44 38 -102 57 -130 70 -103 191 -204 330
-274 43 -22 56 -35 78 -81 34 -70 101 -144 172 -191 60 -40 185 -88 274 -105
43 -8 59 -17 74 -38 28 -42 79 -73 144 -88 80 -19 373 -17 602 5 l185 18 26
-24 c14 -13 50 -33 79 -44 30 -11 67 -32 84 -46 28 -23 36 -25 92 -20 53 5 64
3 79 -13 22 -25 93 -27 135 -5 27 14 29 14 35 -8 3 -12 19 -51 35 -87 l28 -65
6 -318 c15 -761 76 -1182 185 -1295 34 -35 40 -50 75 -197 53 -224 71 -285
100 -323 13 -19 28 -53 31 -75 4 -23 15 -79 26 -124 10 -46 30 -149 44 -230
40 -233 104 -468 205 -756 l42 -118 -26 -141 c-24 -131 -26 -160 -26 -450 0
-325 12 -475 51 -651 65 -293 213 -560 377 -681 26 -19 79 -50 117 -69 75 -37
350 -137 378 -137 12 0 34 -35 72 -114 46 -96 67 -127 136 -200 44 -47 109
-107 142 -132 121 -90 290 -160 452 -184 109 -17 355 -5 570 27 219 32 317 32
540 -2 148 -23 216 -28 380 -29 177 -1 209 2 280 21 191 53 312 121 449 253
116 112 146 153 195 267 l37 86 150 52 c186 66 226 83 307 135 68 43 163 137
216 214 113 164 200 419 237 695 26 188 26 718 1 854 -10 54 -20 104 -23 111
-2 6 22 82 55 168 55 140 102 288 159 498 12 41 30 129 42 195 54 306 90 459
124 525 21 40 46 117 66 200 53 224 72 290 81 290 17 0 69 94 90 160 11 36 36
157 55 270 34 203 39 251 69 795 9 149 20 290 26 314 5 24 27 85 48 135 21 50
46 125 55 166 l16 75 54 -1 c38 0 62 -7 84 -22 38 -27 87 -28 130 -2 31 19 34
19 100 3 99 -24 233 -22 302 5 43 17 62 20 85 13 73 -23 213 -43 263 -37 67 8
113 31 188 95 49 42 71 53 129 66 115 26 161 44 238 94 101 66 205 158 274
241 42 52 89 93 174 151 141 96 302 257 384 383 31 48 84 144 117 214 112 233
135 262 363 439 148 115 359 325 458 458 106 140 190 329 217 485 32 185 30
567 -5 734 -17 81 -67 235 -103 318 -48 110 -191 292 -296 378 -103 84 -265
163 -419 204 -97 26 -124 30 -280 46 -54 5 -168 24 -255 41 -139 28 -169 31
-262 25 -115 -7 -228 -25 -354 -56 -47 -12 -144 -25 -231 -30 -178 -12 -285
-25 -357 -46 -240 -69 -420 -145 -554 -234 -48 -32 -135 -109 -225 -199 -147
-148 -237 -266 -462 -601 -42 -63 -85 -124 -94 -135 -30 -35 -141 -123 -162
-130 -75 -23 -265 166 -402 399 -49 84 -215 254 -338 347 -122 91 -211 141
-299 165 -58 16 -62 19 -62 46 0 35 -14 63 -49 101 -36 40 -63 52 -209 96 -70
22 -171 53 -225 70 -54 17 -137 38 -186 48 l-89 18 1 67 c1 59 -2 71 -24 94
-59 63 -95 66 -267 24 -68 -16 -125 -30 -128 -30 -2 0 -4 18 -4 40 0 47 -26
104 -65 140 -21 20 -39 25 -93 28 -60 4 -78 0 -170 -37 -56 -23 -105 -41 -107
-41 -3 0 -5 10 -5 22 0 35 -39 106 -71 129 -38 27 -130 35 -180 16z m84 -224
c-5 -59 -2 -71 16 -95 12 -14 34 -29 50 -33 33 -7 153 25 274 74 94 37 107 38
107 8 0 -17 -19 -35 -77 -74 -43 -28 -134 -99 -203 -158 -146 -126 -266 -220
-334 -264 -110 -69 -205 -21 -340 171 -25 37 -73 91 -105 119 -33 29 -58 57
-55 63 2 6 8 24 14 41 l11 30 63 -68 c56 -60 67 -67 100 -67 32 0 46 8 94 53
148 139 324 267 368 267 22 0 23 -2 17 -67z m837 -223 c-24 -47 -29 -50 -23
-12 7 44 12 52 28 52 13 0 12 -6 -5 -40z m7 -123 c12 -10 57 -24 109 -33 49
-9 118 -22 154 -30 76 -17 441 -129 486 -149 l32 -14 -16 -45 c-15 -42 -15
-49 -2 -73 20 -36 48 -48 154 -67 85 -15 104 -21 95 -30 -2 -2 -47 0 -99 6
-175 19 -338 -19 -416 -97 -48 -49 -64 -92 -64 -180 0 -148 96 -355 281 -606
90 -121 122 -217 154 -454 27 -201 58 -292 131 -382 74 -91 214 -121 321 -68
125 63 194 178 257 430 14 56 32 117 41 138 49 117 174 173 446 197 303 26
496 86 596 183 110 106 94 249 -44 385 l-64 62 95 134 c111 156 274 331 395
422 78 59 231 144 259 144 6 0 0 -19 -13 -42 -38 -66 -50 -161 -36 -264 39
-276 21 -520 -59 -797 -44 -152 -37 -214 29 -270 94 -79 347 -76 525 7 28 12
114 65 190 116 192 127 252 155 341 155 91 0 133 -21 210 -104 166 -180 209
-213 290 -213 81 0 149 56 243 200 114 176 186 389 187 557 0 90 -3 106 -29
158 -22 47 -42 68 -97 108 -131 96 -206 212 -235 366 -16 88 -16 199 1 196 6
-1 80 -9 165 -18 188 -21 292 -49 430 -118 81 -40 122 -68 182 -125 71 -68
166 -180 157 -185 -2 -1 -21 -11 -42 -21 -109 -56 -228 -210 -287 -375 -108
-295 -100 -554 20 -740 80 -123 158 -176 293 -195 l78 -11 -40 -60 c-111 -165
-309 -373 -475 -498 l-90 -68 -50 50 c-343 332 -776 303 -1266 -87 -196 -156
-549 -543 -580 -636 -19 -58 -5 -120 37 -167 46 -51 92 -63 204 -55 115 9 180
-6 231 -52 47 -42 67 -81 120 -222 21 -58 50 -122 64 -143 13 -21 22 -42 20
-46 -11 -17 -92 -49 -166 -65 -103 -24 -145 -44 -215 -105 l-60 -53 -75 4
c-41 3 -118 15 -171 28 l-96 23 -56 -26 c-66 -32 -151 -36 -237 -12 -84 24
-144 29 -171 15 -22 -12 -26 -10 -64 34 -23 25 -45 46 -50 46 -5 0 -21 -12
-37 -27 l-28 -27 -23 22 c-34 32 -76 37 -114 13 -43 -27 -59 -62 -73 -160 -10
-77 -26 -130 -94 -317 -29 -81 -45 -178 -46 -274 0 -96 -5 -104 -63 -128 -112
-47 -208 -168 -223 -283 -13 -95 61 -239 156 -305 91 -63 84 -42 60 -189 -39
-232 -66 -327 -101 -346 -22 -11 -59 -79 -59 -107 0 -13 -20 -32 -58 -55 -181
-112 -332 -373 -402 -696 -21 -94 -28 -250 -14 -307 20 -82 69 -138 130 -150
19 -3 34 -9 34 -13 -1 -13 -38 -149 -60 -218 l-23 -71 -36 28 c-55 44 -129 73
-201 78 -208 15 -393 -109 -545 -363 -93 -156 -155 -229 -283 -333 -235 -192
-270 -240 -258 -362 29 -310 494 -572 1075 -605 52 -2 96 -7 98 -9 15 -15 -81
-256 -142 -356 -51 -84 -157 -188 -232 -228 -77 -41 -322 -128 -387 -137 -51
-8 -65 -22 -90 -90 -7 -22 -23 -62 -35 -88 l-21 -49 -47 62 c-25 34 -81 99
-123 144 -108 114 -115 129 -104 240 17 177 2 312 -52 478 -42 128 -124 200
-269 233 -72 17 -123 14 -185 -12 -49 -20 -74 -46 -138 -143 -107 -163 -268
-299 -498 -423 -386 -206 -513 -493 -383 -866 20 -59 26 -88 19 -95 -7 -7 -94
-12 -228 -14 -177 -3 -229 -1 -282 13 -36 9 -75 19 -87 22 -29 7 -29 13 3 103
33 97 41 213 20 303 -31 130 -93 224 -205 308 -36 28 -78 69 -93 91 -27 40
-28 45 -28 180 0 96 -4 149 -14 172 -19 46 -156 161 -234 199 -38 18 -90 32
-130 37 -98 11 -144 26 -204 66 -74 51 -124 71 -211 84 -122 18 -214 -6 -276
-72 l-29 -32 -6 35 c-15 94 -26 238 -26 332 l0 104 113 9 c61 4 180 8 262 8
140 0 160 -2 297 -37 237 -60 375 -50 459 34 67 67 73 174 15 287 -13 26 -65
100 -115 165 -98 129 -137 192 -171 277 -33 80 -75 232 -95 337 -21 105 -58
188 -98 217 -44 32 -112 25 -262 -29 -71 -25 -150 -51 -175 -56 -51 -12 -332
-51 -336 -47 -8 9 -67 266 -88 388 -46 265 -91 446 -119 488 -18 25 -37 81
-58 167 -52 220 -80 319 -95 343 -8 12 -13 22 -11 22 10 0 140 -60 178 -82 69
-41 105 -88 130 -171 34 -112 63 -162 115 -198 162 -111 337 -89 448 57 83
108 86 210 12 399 -79 199 -65 269 84 430 96 103 104 130 63 189 -127 182
-500 182 -867 -1 -110 -55 -165 -92 -238 -161 l-56 -53 -6 53 c-17 148 -26
282 -31 468 -4 113 -8 226 -10 253 -3 36 2 57 21 92 48 84 85 250 129 570 35
255 49 329 102 540 68 273 69 373 2 450 -72 81 -231 106 -341 52 -67 -33 -131
-100 -163 -170 -13 -29 -36 -106 -50 -172 -31 -147 -67 -225 -132 -291 -67
-67 -133 -109 -310 -200 l-148 -76 -165 -15 c-188 -17 -443 -14 -478 5 -12 7
-28 28 -36 47 -18 42 -31 49 -136 70 -47 9 -105 24 -130 32 -50 16 -150 73
-150 85 0 4 44 8 98 8 109 0 266 21 329 42 151 54 287 200 349 379 77 221 43
502 -96 781 -55 110 -93 163 -180 248 -126 124 -260 183 -414 182 -218 0 -359
-120 -470 -398 -55 -138 -100 -223 -158 -300 -43 -57 -151 -154 -172 -154 -22
0 -144 109 -216 193 -48 55 -88 115 -121 183 -48 98 -51 107 -64 239 l-14 138
-119 241 c-133 267 -240 530 -267 650 -20 91 -22 259 -6 356 20 114 88 300
109 300 14 0 66 -62 98 -115 22 -38 27 -59 27 -113 1 -61 -4 -77 -51 -172 -28
-58 -56 -127 -62 -154 -21 -97 23 -204 122 -290 63 -55 215 -146 293 -175 162
-61 371 -22 500 92 90 78 131 163 175 357 16 71 76 201 130 281 24 34 94 115
156 180 129 135 194 220 226 297 l23 55 150 -6 c171 -6 190 -11 375 -97 134
-62 282 -111 395 -130 108 -18 222 -57 314 -106 98 -52 202 -125 198 -139 -2
-5 -26 -18 -53 -27 -42 -14 -63 -15 -130 -7 -131 16 -212 49 -389 157 -210
128 -325 164 -452 142 -174 -30 -290 -141 -323 -307 -15 -76 -3 -141 42 -225
71 -134 248 -234 473 -267 288 -43 327 -54 407 -109 105 -72 167 -195 233
-462 37 -151 93 -259 180 -346 82 -83 137 -117 225 -140 202 -51 390 98 447
356 12 56 17 132 18 305 1 195 4 239 19 286 l19 56 65 6 c124 12 167 41 361
248 96 101 180 198 189 215 20 42 10 78 -34 122 -19 19 -34 35 -34 37 0 5 81
27 260 70 85 21 156 39 158 40 2 2 -38 38 -88 81 l-92 79 33 13 c18 8 64 17
101 21 l68 7 30 -53 c57 -100 159 -151 350 -173 250 -29 344 -101 477 -364 65
-127 87 -160 143 -216 134 -135 295 -175 469 -119 109 35 230 120 373 260 115
113 191 152 403 208 178 47 240 70 311 117 105 69 154 149 154 249 0 75 -21
121 -99 222 -83 107 -113 184 -118 298 -2 58 0 83 6 70 5 -11 18 -28 28 -38z"/>
<path d="M6477 10249 c-86 -20 -174 -84 -209 -152 -11 -22 -31 -75 -43 -119
-42 -139 -83 -205 -264 -428 -111 -137 -161 -223 -161 -280 0 -89 62 -187 157
-248 65 -42 209 -88 318 -102 132 -18 380 -8 476 18 153 41 286 127 329 213
23 45 26 119 6 157 -20 37 -79 91 -156 142 -137 90 -193 165 -194 260 -1 46 7
71 48 155 27 55 52 116 57 135 24 100 -72 205 -226 246 -56 15 -83 16 -138 3z"/>
<path d="M8027 9546 c-169 -70 -328 -209 -400 -351 -54 -108 -62 -154 -62
-365 1 -184 2 -200 29 -285 15 -49 67 -173 115 -275 49 -102 93 -198 99 -215
43 -118 72 -271 72 -374 0 -163 60 -275 167 -312 59 -21 213 -16 312 10 223
58 517 207 700 355 82 66 164 165 204 246 30 61 32 71 31 170 -1 115 -20 198
-87 363 -103 253 -312 554 -534 769 -258 247 -472 335 -646 264z"/>
<path d="M10710 9105 c-73 -21 -127 -54 -179 -110 -75 -81 -103 -160 -141
-392 -13 -79 -54 -175 -103 -237 -17 -22 -80 -94 -138 -158 -186 -204 -253
-315 -254 -423 0 -48 6 -70 27 -106 97 -165 240 -155 487 34 182 139 194 147
273 172 44 14 125 32 181 41 56 9 149 25 207 35 244 46 378 162 412 357 31
181 -61 404 -241 583 -174 174 -369 249 -531 204z"/>
<path d="M5941 8328 c-79 -27 -121 -105 -121 -227 0 -123 -43 -238 -163 -438
-117 -194 -161 -346 -136 -463 21 -97 101 -150 226 -150 115 0 220 39 387 144
208 131 260 146 477 145 123 -1 154 2 212 20 151 49 212 180 152 325 -31 73
-91 122 -215 176 -241 105 -301 144 -480 315 -67 64 -139 122 -166 135 -55 27
-124 34 -173 18z"/>
<path d="M9071 7019 c-89 -17 -164 -108 -184 -222 -8 -50 -8 -89 2 -164 49
-392 40 -487 -76 -838 -94 -282 -61 -347 198 -395 177 -33 277 -64 454 -141
182 -78 351 -126 407 -115 45 8 75 37 87 84 6 20 17 105 26 187 27 256 74 409
169 544 110 156 128 224 84 318 -36 77 -84 118 -204 174 -195 90 -212 99 -288
149 -42 27 -135 107 -208 177 -217 208 -332 268 -467 242z"/>
<path d="M6967 6790 c-224 -28 -392 -141 -483 -325 -78 -160 -89 -303 -33
-471 34 -105 96 -159 243 -214 75 -28 130 -71 161 -125 15 -25 61 -130 102
-233 83 -208 113 -267 174 -336 54 -61 112 -100 187 -125 77 -26 117 -26 187
0 81 30 137 92 225 247 117 206 175 253 349 279 207 30 261 99 261 328 0 205
-42 269 -200 305 -356 79 -526 190 -704 460 -107 162 -181 212 -321 216 -44 1
-111 -1 -148 -6z"/>
<path d="M7986 4856 c-52 -20 -100 -68 -127 -130 -19 -44 -23 -75 -28 -233
l-6 -181 -31 -38 c-36 -45 -110 -87 -259 -150 -126 -53 -178 -81 -253 -136
-214 -159 -110 -371 201 -407 175 -21 233 -64 292 -216 20 -51 45 -101 56
-111 24 -22 110 -30 149 -14 47 19 91 76 149 192 81 164 126 194 320 218 155
20 249 49 320 101 58 41 81 83 81 145 0 107 -96 236 -289 392 -53 42 -108 90
-124 107 -15 16 -61 98 -101 180 -102 208 -165 275 -272 290 -23 3 -55 -1 -78
-9z"/>
</g>
</svg>
